#!OML:ASF E:\Style6\Style6.ASF
:FULLY-SPECIFIED
:DEGREES
3300
root 0.535405 17.6292 -1.54346 24.1233 -5.34918 3.78099
lowerback 13.082 -0.985233 6.54917
upperback 16.015 -1.25937 4.14583
thorax 10.1029 -0.262033 0.911267
lowerneck 9.52132 10.98 3.90514
upperneck 19.0374 15.0853 -4.91726
head 4.94331 7.32421 -1.88608
rclavicle 3.65764e-014 2.3059e-014
rhumerus 8.99787 -14.9546 -82.7205
rradius 42.1851
rwrist 24.1434
rhand -5.68262 9.30338
rfingers 7.12502
rthumb 20.1374 -19.6729
lclavicle 3.65764e-014 2.3059e-014
lhumerus 40.131 -19.2094 88.5745
lradius 33.1605
lwrist -23.8706
lhand -32.5012 15.7238
lfingers 7.12502
lthumb -5.73269 45.6263
rfemur -50.5371 0.608433 12.7964
rtibia 34.3173
rfoot -2.65439 -10.6816
rtoes -14.2444
lfemur -46.1844 5.1329 -25.4909
ltibia 32.5483
lfoot -4.80567 3.79517
ltoes -21.8785
3301
root 0.537081 17.6317 -1.54255 24.0374 -5.54586 3.91337
lowerback 12.877 -1.12541 6.58275
upperback 16.0743 -1.45708 3.97292
thorax 10.2776 -0.339256 0.712917
lowerneck 9.54494 11.0834 3.80893
upperneck 18.9958 15.2014 -4.86123
head 4.92179 7.37579 -1.85404
rclavicle 1.59028e-015 -2.3059e-014
rhumerus 9.11446 -14.7592 -83.01
rradius 42.1419
rwrist 24.2207
rhand -5.68179 9.46013
rfingers 7.12502
rthumb 20.1382 -19.5161
lclavicle 1.59028e-015 -2.3059e-014
lhumerus 40.0631 -18.9551 88.3073
lradius 32.9335
lwrist -23.8563
lhand -32.3525 15.7486
lfingers 7.12502
lthumb -5.58909 45.6549
rfemur -50.5051 0.679797 12.6052
rtibia 34.3317
rfoot -2.56306 -10.6673
rtoes -14.5671
lfemur -46.0602 5.17603 -25.6625
ltibia 32.5391
lfoot -4.85317 3.87537
ltoes -21.8531
3302
root 0.53867 17.6321 -1.5413 23.976 -5.76053 3.93713
lowerback 13.1975 -0.949336 6.54131
upperback 16.0075 -1.19852 4.02748
thorax 10.0268 -0.226562 0.784116
lowerneck 9.34874 10.8853 4.03014
upperneck 19.1488 14.9501 -4.76419
head 4.99565 7.26637 -1.8496
rclavicle 4.77083e-015 3.81667e-014
rhumerus 9.11081 -15.2716 -82.9116
rradius 42.1033
rwrist 24.2618
rhand -5.67377 9.65542
rfingers 7.12502
rthumb 20.1459 -19.32
lclavicle 4.77083e-015 3.81667e-014
lhumerus 40.0326 -19.453 88.3063
lradius 32.712
lwrist -23.7407
lhand -32.0204 15.7243
lfingers 7.12502
lthumb -5.26847 45.6388
rfemur -50.4959 0.793826 12.527
rtibia 34.3301
rfoot -2.57083 -10.6108
rtoes -14.0465
lfemur -45.9724 5.23692 -25.7091
ltibia 32.529
lfoot -4.84767 3.99835
ltoes -22.144
3303
root 0.540426 17.6308 -1.54104 23.9481 -6.04598 3.93304
lowerback 13.1673 -0.816974 6.6117
upperback 15.9987 -1.02577 3.98714
thorax 10.0383 -0.13168 0.692913
lowerneck 9.33611 10.7455 4.20278
upperneck 19.2012 14.767 -4.68083
head 5.01082 7.19085 -1.85401
rclavicle -1.59028e-015 2.78299e-014
rhumerus 9.10334 -15.5938 -82.9059
rradius 42.1623
rwrist 24.0723
rhand -5.4677 9.56023
rfingers 7.12502
rthumb 20.344 -19.3942
lclavicle -1.59028e-015 2.78299e-014
lhumerus 40.0004 -19.9044 88.1025
lradius 32.5297
lwrist -23.5097
lhand -31.5676 16.0863
lfingers 7.12502
lthumb -4.83118 46.0112
rfemur -50.5433 0.981139 12.439
rtibia 34.3462
rfoot -2.63766 -10.5423
rtoes -13.3718
lfemur -45.9316 5.39009 -25.7764
ltibia 32.5322
lfoot -4.83879 4.11951
ltoes -22.3685
3304
root 0.542353 17.6295 -1.54174 23.9116 -6.28144 3.89125
lowerback 13.1577 -0.744459 6.75984
upperback 16.012 -0.925326 3.93464
thorax 10.0648 -0.0629481 0.550024
lowerneck 9.13777 10.668 4.42777
upperneck 19.3647 14.6869 -4.70742
head 5.107 7.15927 -1.88166
rclavicle -3.02153e-014 -2.38542e-015
rhumerus 9.08055 -15.7318 -82.9343
rradius 42.3633
rwrist 23.793
rhand -5.22652 9.20742
rfingers 7.12502
rthumb 20.5758 -19.7221
lclavicle -3.02153e-014 -2.38542e-015
lhumerus 40.0062 -20.2338 87.8534
lradius 32.3903
lwrist -23.5508
lhand -31.2956 16.7151
lfingers 7.12502
lthumb -4.56861 46.6458
rfemur -50.5704 1.14874 12.4103
rtibia 34.3799
rfoot -2.65303 -10.4462
rtoes -13.4843
lfemur -45.8924 5.52641 -25.7781
ltibia 32.5671
lfoot -4.88734 4.20309
ltoes -21.9925
3305
root 0.544131 17.6259 -1.54213 23.8612 -6.47934 3.97102
lowerback 13.2519 -0.705131 6.7653
upperback 16.0051 -0.863636 3.89373
thorax 10.0052 -0.0307041 0.499531
lowerneck 8.94931 10.64 4.41903
upperneck 19.4875 14.6338 -4.56893
head 5.16154 7.13339 -1.82637
rclavicle -3.18055e-015 1.43125e-014
rhumerus 9.08496 -15.8978 -83.0126
rradius 42.384
rwrist 24.0625
rhand -5.50184 9.26524
rfingers 7.12502
rthumb 20.3112 -19.6927
lclavicle -3.18055e-015 1.43125e-014
lhumerus 39.9845 -20.4322 87.7307
lradius 32.2668
lwrist -23.7719
lhand -31.1178 17.4645
lfingers 7.12502
lthumb -4.39687 47.3988
rfemur -50.6079 1.22492 12.2828
rtibia 34.4324
rfoot -2.60981 -10.3746
rtoes -14.0238
lfemur -45.8596 5.62188 -25.9079
ltibia 32.6215
lfoot -4.95978 4.25096
ltoes -21.7096
3306
root 0.546346 17.6223 -1.54169 23.7815 -6.65658 4.00863
lowerback 13.2994 -0.688293 6.84837
upperback 16.0253 -0.833629 3.84992
thorax 10.0053 -0.00437863 0.405457
lowerneck 8.87133 10.6235 4.31669
upperneck 19.4596 14.5721 -4.33862
head 5.13765 7.10516 -1.74039
rclavicle -1.27222e-014 -5.00937e-014
rhumerus 9.14703 -16.0098 -83.0749
rradius 42.3875
rwrist 24.0707
rhand -5.52514 9.22383
rfingers 7.12502
rthumb 20.2888 -19.7365
lclavicle -1.27222e-014 -5.00937e-014
lhumerus 39.9439 -20.658 87.5473
lradius 32.1535
lwrist -23.7632
lhand -30.7703 17.8931
lfingers 7.12502
lthumb -4.06136 47.8342
rfemur -50.5993 1.32411 12.1961
rtibia 34.4737
rfoot -2.56092 -10.3434
rtoes -14.3594
lfemur -45.7958 5.70829 -25.9812
ltibia 32.6923
lfoot -5.01532 4.34348
ltoes -21.9024
3307
root 0.548883 17.6209 -1.54219 23.7679 -6.80338 3.98243
lowerback 13.2557 -0.681482 7.02905
upperback 16.0177 -0.81833 3.81319
thorax 10.0246 0.0246272 0.265167
lowerneck 8.76196 10.5626 4.46888
upperneck 19.5685 14.5039 -4.35147
head 5.19745 7.07782 -1.75985
rclavicle 7.95139e-015 3.18055e-015
rhumerus 9.18376 -16.0689 -83.0749
rradius 42.5189
rwrist 23.6453
rhand -5.01096 8.96328
rfingers 7.12502
rthumb 20.7829 -19.9437
lclavicle 7.95139e-015 3.18055e-015
lhumerus 39.9196 -20.9352 87.2123
lradius 31.9705
lwrist -23.5844
lhand -30.5044 17.8605
lfingers 7.12502
lthumb -3.80454 47.8062
rfemur -50.6282 1.42843 12.1709
rtibia 34.4909
rfoot -2.55686 -10.2842
rtoes -14.0023
lfemur -45.8188 5.80371 -25.9925
ltibia 32.7775
lfoot -5.05054 4.36595
ltoes -22.0066
3308
root 0.549982 17.6213 -1.54297 23.7433 -6.95333 3.91649
lowerback 13.2115 -0.713221 7.19847
upperback 16.0016 -0.853497 3.77532
thorax 10.0313 0.0270695 0.131864
lowerneck 8.57443 10.5441 4.63298
upperneck 19.8125 14.4975 -4.38872
head 5.31831 7.07632 -1.77836
rclavicle 6.04305e-014 6.36111e-014
rhumerus 9.16964 -16.0304 -83.127
rradius 42.562
rwrist 23.5637
rhand -4.95901 9.0149
rfingers 7.12502
rthumb 20.8328 -19.8866
lclavicle 6.04305e-014 6.36111e-014
lhumerus 39.8564 -20.9547 87.0018
lradius 31.6079
lwrist -23.5951
lhand -30.559 17.4845
lfingers 7.12502
lthumb -3.85728 47.4294
rfemur -50.6216 1.57276 12.1939
rtibia 34.4702
rfoot -2.47487 -10.2416
rtoes -14.5325
lfemur -45.8324 5.92198 -25.9577
ltibia 32.8638
lfoot -5.09525 4.37952
ltoes -21.9684
